<svg id="Layer_1" data-name="Layer 1" xmlns="http://www.w3.org/2000/svg" viewBox="0 0 512 512"><defs><style>.cls-1{fill:#141f38;}</style></defs><title>phone-smile-glyph</title><path class="cls-1" d="M242.87,256a98.46,98.46,0,1,0,98.46-98.46A98.57,98.57,0,0,0,242.87,256Zm72.21-39.38a13.13,13.13,0,1,1-13.13,13.13A13.13,13.13,0,0,1,315.08,216.62Zm60.44,70a45.76,45.76,0,0,1-68.37,0A6.56,6.56,0,1,1,317,277.9a32.65,32.65,0,0,0,48.73,0,6.56,6.56,0,1,1,9.82,8.71Zm-7.93-70a13.13,13.13,0,1,1-13.13,13.13A13.13,13.13,0,0,1,367.59,216.62ZM275.69,0H144.41A72.29,72.29,0,0,0,72.21,72.21V105H347.9V72.21A72.29,72.29,0,0,0,275.69,0ZM223.18,65.64H196.92a6.56,6.56,0,0,1,0-13.13h26.26a6.56,6.56,0,0,1,0,13.13Zm-151,374.15A72.29,72.29,0,0,0,144.41,512H275.69a72.29,72.29,0,0,0,72.21-72.21V407H72.21Zm137.85,0a13.13,13.13,0,1,1-13.13,13.13A13.13,13.13,0,0,1,210.05,439.79ZM347.9,393.85H72.21V118.15H347.9v26.59c-2.18-.13-4.35-.33-6.56-.33a111.59,111.59,0,1,0,0,223.18c2.22,0,4.38-.2,6.56-.33Z"/></svg>